<svg xmlns="http://www.w3.org/2000/svg" width="29" height="29" viewBox="0 0 29 29">
  <path id="profile" d="M16.519,2A14.514,14.514,0,0,0,5.841,26.327h0a14.536,14.536,0,0,0,21.355,0h0A14.514,14.514,0,0,0,16.519,2Zm0,26.127a11.627,11.627,0,0,1-8.063-3.266,8.719,8.719,0,0,1,16.125,0A11.627,11.627,0,0,1,16.519,28.127ZM13.613,13.612a2.905,2.905,0,1,1,2.905,2.9A2.9,2.9,0,0,1,13.613,13.612Zm12.944,8.709a11.619,11.619,0,0,0-5.68-4.906,5.809,5.809,0,1,0-8.716,0,11.619,11.619,0,0,0-5.68,4.906A11.488,11.488,0,0,1,4.9,16.515a11.622,11.622,0,0,1,23.244,0A11.488,11.488,0,0,1,26.557,22.321Z" transform="translate(-2.019 -2)" fill="#fff"/>
</svg>
